<?xml version="1.0" encoding="UTF-8"?>
<svg id="Layer_2" xmlns="http://www.w3.org/2000/svg" viewBox="0 0 118 66">
    <g id="Layer_1-2">
        <path d="m0,24.92h16.51l6.37,24.58,6.32-24.58h16.5v40.39h-10.28v-30.8l-7.92,30.8h-9.31l-7.91-30.8v30.8H0V24.92Z"
            fill="#fff" />
        <path
            d="m64.07,14.23h9.7l-8.95,8.24h-5.41l4.65-8.24h0Zm7.35,44.41h-14.25l-1.98,6.67h-12.82l15.27-40.39h13.69l15.27,40.39h-13.15l-2.03-6.67h0Zm-2.6-8.73l-4.48-14.52-4.44,14.52h8.92Z"
            fill="#fff" />
        <path
            d="m81.14,51.95l11.94-.74c.26,1.93.79,3.4,1.58,4.41,1.29,1.63,3.14,2.45,5.54,2.45,1.79,0,3.17-.42,4.14-1.25.97-.83,1.46-1.8,1.46-2.91s-.46-1.98-1.39-2.81c-.92-.83-3.07-1.61-6.43-2.34-5.51-1.23-9.43-2.87-11.78-4.9-2.36-2.04-3.55-4.64-3.55-7.8,0-2.07.6-4.04,1.82-5.88,1.21-1.85,3.03-3.3,5.46-4.35,2.43-1.05,5.76-1.58,9.99-1.58,5.19,0,9.15.96,11.87,2.88,2.73,1.92,4.35,4.97,4.86,9.16l-11.83.69c-.31-1.82-.97-3.14-1.98-3.97-1.01-.83-2.4-1.24-4.17-1.24-1.46,0-2.56.31-3.3.92-.74.62-1.11,1.36-1.11,2.25,0,.64.3,1.22.91,1.74.59.53,2,1.03,4.21,1.49,5.49,1.18,9.42,2.36,11.79,3.57,2.37,1.2,4.1,2.7,5.18,4.48,1.08,1.78,1.62,3.77,1.62,5.98,0,2.59-.72,4.98-2.16,7.16-1.44,2.19-3.46,3.84-6.04,4.97-2.59,1.13-5.85,1.69-9.78,1.69-6.91,0-11.7-1.32-14.36-3.97-2.66-2.65-4.17-6.01-4.52-10.08"
            fill="#fff" />
        <path
            d="m26.74,0h4.79c.95,0,1.66.04,2.12.12.47.08.88.24,1.25.49.37.25.68.58.92,1,.24.41.37.88.37,1.4,0,.56-.15,1.07-.45,1.54-.3.47-.71.82-1.23,1.05.73.21,1.29.57,1.69,1.08.39.51.59,1.11.59,1.8,0,.54-.13,1.07-.38,1.58-.25.51-.6.92-1.04,1.23-.44.31-.98.5-1.63.57-.4.04-1.38.07-2.92.08h-4.08V0Zm2.42,1.98v2.76h1.59c.94,0,1.53-.01,1.76-.04.42-.05.74-.19.98-.43.24-.24.36-.55.36-.93s-.1-.67-.31-.9c-.21-.23-.51-.37-.91-.42-.24-.03-.93-.04-2.07-.04h-1.39,0Zm0,4.74v3.19h2.24c.87,0,1.43-.02,1.66-.07.36-.06.65-.22.88-.48.23-.25.34-.59.34-1.01,0-.36-.09-.66-.26-.91-.17-.25-.43-.43-.76-.54-.33-.11-1.05-.17-2.15-.17h-1.96Z"
            fill="#fff" />
        <path
            d="m43.86,9.18l2.29.38c-.29.83-.76,1.47-1.39,1.91-.64.44-1.43.66-2.39.66-1.51,0-2.63-.49-3.36-1.47-.57-.79-.86-1.78-.86-2.98,0-1.43.38-2.55,1.13-3.36.75-.81,1.7-1.22,2.86-1.22,1.29,0,2.31.42,3.06,1.27.75.85,1.11,2.15,1.07,3.9h-5.76c.02.68.2,1.21.56,1.58.35.38.8.57,1.33.57.36,0,.66-.1.91-.29.25-.19.43-.51.56-.94h0Zm.13-2.31c-.02-.66-.19-1.16-.52-1.51-.33-.35-.73-.52-1.19-.52-.5,0-.92.18-1.24.54-.33.36-.49.86-.48,1.48h3.44,0Z"
            fill="#fff" />
        <path
            d="m48.04,11.93V0h2.3v4.3c.71-.8,1.55-1.2,2.52-1.2,1.06,0,1.93.38,2.63,1.14.69.76,1.04,1.86,1.04,3.28s-.35,2.61-1.06,3.41-1.56,1.2-2.57,1.2c-.5,0-.99-.12-1.47-.37-.48-.25-.9-.61-1.25-1.09v1.27h-2.14Zm2.28-4.51c0,.89.14,1.56.42,1.98.4.61.93.91,1.59.91.51,0,.94-.22,1.3-.65.36-.43.54-1.11.54-2.04,0-.99-.18-1.7-.54-2.14-.36-.44-.82-.66-1.38-.66s-1.01.21-1.38.64c-.37.43-.55,1.07-.55,1.94h0Z"
            fill="#fff" />
        <path d="m58.38,2.11V0h2.3v2.11h-2.3Zm0,9.81V3.29h2.3v8.64h-2.3Z" fill="#fff" />
        <path
            d="m71.01,11.93h-2.14v-1.27c-.35.49-.77.86-1.26,1.1-.48.24-.97.36-1.46.36-1,0-1.85-.4-2.57-1.2-.71-.8-1.07-1.91-1.07-3.35s.35-2.58,1.04-3.34c.69-.76,1.57-1.14,2.63-1.14.97,0,1.81.4,2.52,1.2V0h2.3v11.93Zm-6.14-4.51c0,.92.13,1.59.38,2,.37.6.89.89,1.56.89.53,0,.98-.22,1.35-.67.37-.45.56-1.12.56-2.01,0-.99-.18-1.71-.54-2.14-.36-.44-.82-.66-1.38-.66s-1,.22-1.37.65c-.37.43-.55,1.08-.55,1.93h0Z"
            fill="#fff" />
        <path
            d="m74.99,5.92l-2.09-.37c.24-.83.64-1.45,1.21-1.85.57-.4,1.42-.6,2.55-.6,1.03,0,1.79.12,2.29.36.5.24.86.55,1.06.92.21.37.31,1.05.31,2.05l-.03,2.67c0,.76.04,1.32.11,1.68.07.36.21.75.41,1.16h-2.28c-.06-.15-.13-.38-.22-.67-.04-.13-.07-.22-.08-.27-.39.38-.81.67-1.26.85-.45.19-.93.29-1.43.29-.9,0-1.6-.24-2.12-.72-.52-.48-.77-1.09-.77-1.83,0-.49.12-.92.35-1.31.24-.38.56-.67.99-.88.42-.2,1.03-.38,1.83-.53,1.08-.2,1.82-.39,2.23-.56v-.23c0-.44-.11-.75-.33-.94-.22-.19-.63-.28-1.24-.28-.41,0-.73.08-.96.24-.23.16-.42.44-.56.84h0Zm3.08,1.85c-.29.1-.76.21-1.4.35-.64.13-1.06.27-1.25.4-.3.21-.45.48-.45.8s.12.6.36.83c.24.23.55.35.92.35.42,0,.81-.13,1.19-.41.28-.21.46-.46.55-.76.06-.19.09-.57.09-1.12v-.46Z"
            fill="#fff" />
        <path
            d="m81.79,9.46l2.31-.35c.1.45.3.78.6,1.01.3.23.72.35,1.26.35.59,0,1.04-.11,1.34-.32.2-.15.3-.35.3-.61,0-.17-.05-.32-.16-.43-.11-.11-.37-.21-.77-.3-1.86-.41-3.03-.78-3.53-1.12-.69-.47-1.03-1.12-1.03-1.95,0-.75.3-1.38.89-1.89.59-.51,1.52-.77,2.77-.77s2.07.19,2.65.58c.58.38.98.96,1.19,1.71l-2.17.4c-.09-.34-.27-.59-.53-.77-.26-.18-.63-.27-1.11-.27-.61,0-1.04.08-1.3.25-.17.12-.26.27-.26.46,0,.16.08.3.23.41.21.15.92.37,2.15.64,1.22.28,2.08.62,2.57,1.02.48.41.72.97.72,1.7,0,.79-.33,1.47-1,2.04-.66.57-1.65.85-2.95.85-1.18,0-2.12-.24-2.81-.72-.69-.48-1.14-1.12-1.35-1.95h0Z"
            fill="#fff" />
    </g>
</svg>