<svg width="1008" height="1008" viewBox="0 0 1008 1008" fill="none" xmlns="http://www.w3.org/2000/svg">
<g filter="url(#filter0_d_822_978)">
<g clip-path="url(#clip0_822_978)">
<path d="M1004 0H4V1000H1004V0Z" fill="#212121"/>
<path d="M761.07 667.424L716.113 641.297L715.943 582.648L760.9 608.775L761.07 667.424Z" fill="#00717E"/>
<path d="M552.446 852.952L507.489 826.825L507.304 761.845L552.262 787.972L552.446 852.952Z" fill="#00717E"/>
<path d="M552.262 787.972L507.304 761.845L716.113 641.297L761.07 667.424L552.262 787.972Z" fill="#00B6CA"/>
<path d="M614.622 628.145L569.665 602.018L778.474 481.463L823.431 507.59L614.622 628.145Z" fill="#00B6CA"/>
<path d="M552.098 729.331L507.141 703.204L506.602 514.83L551.566 540.956L552.098 729.331Z" fill="#00717E"/>
<path d="M551.566 540.956L506.602 514.83L778.119 358.069L823.076 384.196L551.566 540.956Z" fill="#00B6CA"/>
<path d="M823.076 384.196L823.261 449.169L614.459 569.724L614.622 628.145L823.431 507.59L823.963 696.191L552.446 852.952L552.262 787.972L761.07 667.424L760.9 608.776L552.098 729.331L551.566 540.957L823.076 384.196Z" fill="#00A3B6"/>
<path d="M236.802 537.997L281.759 511.877L281.227 701.593L236.27 727.719L236.802 537.997Z" fill="#1D49C5"/>
<path d="M183.924 385.005L228.881 358.878L288.949 393.558L243.992 419.684L183.924 385.005Z" fill="#2152DC"/>
<path d="M243.992 419.684L288.949 393.557L364.214 619.131L319.257 645.258L243.992 419.684Z" fill="#2459EF"/>
<path d="M401.853 633.291L446.81 607.164L363.845 749.289L318.888 775.416L401.853 633.291Z" fill="#1D49C5"/>
<path d="M455.427 541.759L500.384 515.632L499.504 827.613L454.547 853.74L455.427 541.759Z" fill="#1D49C5"/>
<path d="M395.366 507.079L440.323 480.952L500.384 515.632L455.427 541.759L395.366 507.079Z" fill="#2152DC"/>
<path d="M455.427 541.759L454.547 853.74L401.314 823.014L401.853 633.291L318.888 775.416L236.802 537.997L236.27 727.72L183.037 696.986L183.924 385.005L243.992 419.684L319.257 645.258L395.366 507.079L455.427 541.759Z" fill="#143389"/>
<path d="M773.796 299.754L773.654 351.752L717.476 384.401L717.625 332.403L773.796 299.754Z" fill="#007DC5"/>
<path d="M717.625 332.403L717.476 384.401L445.966 227.641L446.115 175.642L717.625 332.403Z" fill="#005789"/>
<path d="M502.293 143L773.796 299.754L717.625 332.403L446.115 175.643L502.293 143Z" fill="#008CDC"/>
<path d="M458.302 241.204L458.16 293.202L351.275 355.315L351.417 303.317L458.302 241.204Z" fill="#007DC5"/>
<path d="M548.23 358.204L548.081 410.202L481.895 371.988L482.044 319.99L548.23 358.204Z" fill="#005789"/>
<path d="M504.047 456.514L503.897 508.513L232.395 351.759L232.536 299.761L504.047 456.514Z" fill="#005789"/>
<path d="M610.932 394.402L560.225 423.872L504.047 456.514L503.898 508.512L560.076 475.87L610.783 446.4L666.961 413.751L667.11 361.752L610.932 394.402Z" fill="#007DC5"/>
<path d="M482.044 319.989L538.215 287.34L667.11 361.752L610.932 394.402L560.225 423.872L504.047 456.514L232.536 299.761L395.6 204.999L458.302 241.204L351.417 303.317L497.524 387.666L548.23 358.204L482.044 319.989Z" fill="#008CDC"/>
</g>
</g>
<defs>
<filter id="filter0_d_822_978" x="0" y="0" width="1008" height="1008" filterUnits="userSpaceOnUse" color-interpolation-filters="sRGB">
<feFlood flood-opacity="0" result="BackgroundImageFix"/>
<feColorMatrix in="SourceAlpha" type="matrix" values="0 0 0 0 0 0 0 0 0 0 0 0 0 0 0 0 0 0 127 0" result="hardAlpha"/>
<feOffset dy="4"/>
<feGaussianBlur stdDeviation="2"/>
<feComposite in2="hardAlpha" operator="out"/>
<feColorMatrix type="matrix" values="0 0 0 0 0 0 0 0 0 0 0 0 0 0 0 0 0 0 0.25 0"/>
<feBlend mode="normal" in2="BackgroundImageFix" result="effect1_dropShadow_822_978"/>
<feBlend mode="normal" in="SourceGraphic" in2="effect1_dropShadow_822_978" result="shape"/>
</filter>
<clipPath id="clip0_822_978">
<rect x="4" width="1000" height="1000" rx="500" fill="white"/>
</clipPath>
</defs>
</svg>
